# xmcd CD database file
# Copyright (C) 1995 Ti Kan
#
# Track frame offsets:
#	150
#	13722
#	26536
#	36423
#	54231
#	69029
#	80669
#	93710
#	104692
#	116986
#	129294
#	141778
#	154176
#	164631
#	177315
#	191016
#	202531
#	212275
#	225592
#	239101
#	253505
#	263321
#	274581
#	285034
#	293500
#	307981
#	319329
#
# Disc length: 4509 seconds
#
# Revision: 1
# Processed by: cddbd v1.4PL0 Copyright (c) Steve Scherf et al.
# Submitted via: NotifyCDPlayer(CDDB) 1.60beta5_freedb
#
DISCID=73119b1b
DTITLE=Waylon Jennings - The Journey: Six Strings Away Vol. 4
DYEAR=1900
DGENRE=
TTITLE0=Lovin' Her Was Easier (Than Anything I'll Ever Do Again)
TTITLE1=Mobile Blues
TTITLE2=Mama I'll Sing One Song For You
TTITLE3=Casey's Last Ride
TTITLE4=Love In The Afternoon
TTITLE5=I've Got Eyes For You
TTITLE6=Under Your Spell Again (& Jessi Colter)
TTITLE7=Atlanta's Burning Down
TTITLE8=The Ghost Of General Lee
TTITLE9=Some Kind Of Fool
TTITLE10=I Think It's Time She Learned
TTITLE11=The Same Old Love Man
TTITLE12=Low Down Freedom
TTITLE13=Unsatisfied
TTITLE14=It Should Be Easier Now
TTITLE15=Crazy Arms
TTITLE16=Do No Good Woman
TTITLE17=Sweet Dream Woman
TTITLE18=Good Hearted Woman
TTITLE19=Revelation
TTITLE20=Big, Big Love
TTITLE21=Ladies Love Outlaws
TTITLE22=Sure Didn't Take Him Long
TTITLE23=Nothin' Worth Takin' Or Leavin'
TTITLE24=Lay It Down
TTITLE25=Sandy Sends Her Best
TTITLE26=The Last Letter
EXTD=
EXTT0=
EXTT1=
EXTT2=
EXTT3=
EXTT4=
EXTT5=
EXTT6=
EXTT7=
EXTT8=
EXTT9=
EXTT10=
EXTT11=
EXTT12=
EXTT13=
EXTT14=
EXTT15=
EXTT16=
EXTT17=
EXTT18=
EXTT19=
EXTT20=
EXTT21=
EXTT22=
EXTT23=
EXTT24=
EXTT25=
EXTT26=
PLAYORDER=
